<svg width="24" height="25" viewBox="0 0 24 25" fill="none" xmlns="http://www.w3.org/2000/svg">
<path d="M5.616 20.5C5.15533 20.5 4.771 20.346 4.463 20.038C4.155 19.73 4.00067 19.3453 4 18.884V6.116C4 5.65533 4.15433 5.271 4.463 4.963C4.77167 4.655 5.156 4.50067 5.616 4.5H18.385C18.845 4.5 19.2293 4.65433 19.538 4.963C19.8467 5.27167 20.0007 5.656 20 6.116V18.885C20 19.345 19.846 19.7293 19.538 20.038C19.23 20.3467 18.8453 20.5007 18.384 20.5H5.616ZM5.616 19.5H18.385C18.5383 19.5 18.6793 19.436 18.808 19.308C18.9367 19.18 19.0007 19.0387 19 18.884V6.116C19 5.962 18.936 5.82067 18.808 5.692C18.68 5.56333 18.5387 5.49933 18.384 5.5H5.616C5.462 5.5 5.32067 5.564 5.192 5.692C5.06333 5.82 4.99933 5.96133 5 6.116V18.885C5 19.0383 5.064 19.1793 5.192 19.308C5.32 19.4367 5.461 19.5007 5.615 19.5M8 17H13C13.1427 17 13.2617 16.9523 13.357 16.857C13.4523 16.7617 13.5 16.6427 13.5 16.5C13.5 16.3573 13.4523 16.2383 13.357 16.143C13.2617 16.0477 13.1427 16 13 16H8C7.858 16 7.739 16.0477 7.643 16.143C7.547 16.2383 7.49933 16.3573 7.5 16.5C7.50067 16.6427 7.54833 16.7617 7.643 16.857C7.73767 16.9523 7.85667 17 8 17ZM8 13H16C16.1427 13 16.2617 12.9523 16.357 12.857C16.4523 12.7617 16.5 12.6427 16.5 12.5C16.5 12.3573 16.4523 12.2383 16.357 12.143C16.2617 12.0477 16.1427 12 16 12H8C7.858 12 7.739 12.0477 7.643 12.143C7.547 12.2383 7.49933 12.3573 7.5 12.5C7.50067 12.6427 7.54833 12.7617 7.643 12.857C7.73767 12.9523 7.85667 13 8 13ZM8 9H16C16.1427 9 16.2617 8.95233 16.357 8.857C16.4523 8.76167 16.5 8.64267 16.5 8.5C16.5 8.35733 16.4523 8.23833 16.357 8.143C16.2617 8.04767 16.1427 8 16 8H8C7.858 8 7.739 8.04767 7.643 8.143C7.547 8.23833 7.49933 8.35733 7.5 8.5C7.50067 8.64267 7.54833 8.76167 7.643 8.857C7.73767 8.95233 7.85667 9 8 9Z" fill="#4545FE"/>
</svg>
