<svg xmlns="http://www.w3.org/2000/svg" width="20" height="20" viewBox="0 0 20 20" fill="none">
<path fill-rule="evenodd" clip-rule="evenodd" d="M0.0966797 9.56485C0.0966797 4.57689 4.08296 0.0820312 9.58422 0.0820312C14.9624 0.0820312 19.0339 4.49154 19.0339 9.53641C19.0339 15.3873 14.2617 19.0192 9.56528 19.0192C8.01243 19.0192 6.28914 18.602 4.90673 17.7865C4.42383 17.4925 4.01668 17.2744 3.49591 17.4451L1.58325 18.0141C1.10035 18.1658 0.664796 17.7865 0.806825 17.2744L1.44122 15.1502C1.54538 14.8563 1.52644 14.5433 1.37494 14.2968C0.560641 12.7985 0.0966797 11.158 0.0966797 9.56485ZM5.18132 10.7884C4.51852 10.7884 3.96934 10.2383 3.96934 9.57455C3.96934 8.90127 4.50905 8.36075 5.18132 8.36075C5.85359 8.36075 6.3933 8.90127 6.3933 9.57455C6.3933 10.2383 5.85359 10.7789 5.18132 10.7884ZM8.33424 9.56558C8.33424 10.2389 8.87395 10.7794 9.54622 10.7889C10.2185 10.7889 10.7582 10.2389 10.7582 9.57507C10.7582 8.90178 10.2185 8.36126 9.54622 8.36126C8.88342 8.35178 8.33424 8.90178 8.33424 9.56558ZM12.6994 9.57494C12.6994 10.2387 13.2391 10.7887 13.9113 10.7887C14.5836 10.7887 15.1233 10.2387 15.1233 9.57494C15.1233 8.90166 14.5836 8.36114 13.9113 8.36114C13.2391 8.36114 12.6994 8.90166 12.6994 9.57494Z" fill="white"/>
</svg>