<svg width="25" height="25" viewBox="0 0 25 25" fill="none" xmlns="http://www.w3.org/2000/svg">
<path d="M19.7462 5.45984C15.8362 1.54984 9.4862 1.54984 5.5762 5.45984C1.5962 9.43984 1.6662 15.9298 5.7762 19.8298C9.5762 23.4198 15.7362 23.4198 19.5362 19.8298C23.6562 15.9298 23.7262 9.43984 19.7462 5.45984ZM17.0162 17.1498C15.8162 18.2898 14.2362 18.8598 12.6562 18.8598C11.0762 18.8598 9.4962 18.2898 8.2962 17.1498C7.9962 16.8598 7.9862 16.3898 8.2662 16.0898C8.5562 15.7898 9.0262 15.7798 9.3262 16.0598C11.1562 17.7898 14.1462 17.7998 15.9862 16.0598C16.2862 15.7798 16.7662 15.7898 17.0462 16.0898C17.3362 16.3898 17.3162 16.8598 17.0162 17.1498Z" fill="white"/>
</svg>
