<svg xmlns="http://www.w3.org/2000/svg" width="24" height="25" viewBox="0 0 24 25" fill="none">
<g clip-path="url(#clip0_15055_57249)">
<path d="M12 0.0703125C9.62663 0.0703125 7.30655 0.7741 5.33316 2.09268C3.35977 3.41125 1.8217 5.2854 0.913451 7.47811C0.00519943 9.67083 -0.232441 12.0836 0.230582 14.4114C0.693605 16.7392 1.83649 18.8774 3.51472 20.5556C5.19295 22.2338 7.33115 23.3767 9.65892 23.8397C11.9867 24.3028 14.3995 24.0651 16.5922 23.1569C18.7849 22.2486 20.6591 20.7105 21.9776 18.7372C23.2962 16.7638 24 14.4437 24 12.0703C23.9966 8.88877 22.7312 5.83852 20.4815 3.58883C18.2318 1.33914 15.1815 0.0737536 12 0.0703125V0.0703125ZM12 22.0703C10.0222 22.0703 8.08879 21.4838 6.4443 20.385C4.79981 19.2862 3.51809 17.7244 2.76121 15.8971C2.00433 14.0699 1.8063 12.0592 2.19215 10.1194C2.578 8.1796 3.53041 6.39777 4.92894 4.99925C6.32746 3.60072 8.10929 2.64831 10.0491 2.26246C11.9889 1.87661 13.9996 2.07464 15.8268 2.83152C17.6541 3.58839 19.2159 4.87012 20.3147 6.51461C21.4135 8.1591 22 10.0925 22 12.0703C21.9971 14.7216 20.9426 17.2634 19.0679 19.1382C17.1931 21.0129 14.6513 22.0674 12 22.0703Z" fill="#374957"/>
<path d="M12 10.0703H11C10.7348 10.0703 10.4804 10.1757 10.2929 10.3632C10.1054 10.5507 10 10.8051 10 11.0703C10 11.3355 10.1054 11.5899 10.2929 11.7774C10.4804 11.965 10.7348 12.0703 11 12.0703H12V18.0703C12 18.3355 12.1054 18.5899 12.2929 18.7774C12.4804 18.965 12.7348 19.0703 13 19.0703C13.2652 19.0703 13.5196 18.965 13.7071 18.7774C13.8946 18.5899 14 18.3355 14 18.0703V12.0703C14 11.5399 13.7893 11.0312 13.4142 10.6561C13.0391 10.281 12.5304 10.0703 12 10.0703Z" fill="#374957"/>
<path d="M12 8.07031C12.8284 8.07031 13.5 7.39874 13.5 6.57031C13.5 5.74189 12.8284 5.07031 12 5.07031C11.1716 5.07031 10.5 5.74189 10.5 6.57031C10.5 7.39874 11.1716 8.07031 12 8.07031Z" fill="#374957"/>
</g>
<defs>
<clipPath id="clip0_15055_57249">
<rect width="24" height="24" fill="white" transform="translate(0 0.0703125)"/>
</clipPath>
</defs>
</svg>