<svg width="40" height="41" viewBox="0 0 40 41" fill="none" xmlns="http://www.w3.org/2000/svg">
<rect y="0.0195312" width="40" height="40" rx="20" fill="white"/>
<rect x="1" y="1.01953" width="38" height="38" rx="19" stroke="#1B1B1B" stroke-opacity="0.16" stroke-width="2"/>
<g clip-path="url(#clip0_1_3288)">
<g clip-path="url(#clip1_1_3288)">
<g clip-path="url(#clip2_1_3288)">
<path d="M23.3691 17.0723C24.7091 17.0723 25.9943 17.6046 26.9419 18.5522C27.8894 19.4997 28.4218 20.7849 28.4218 22.125V28.0198H25.0533V22.125C25.0533 21.6783 24.8759 21.2499 24.56 20.934C24.2442 20.6182 23.8158 20.4407 23.3691 20.4407C22.9224 20.4407 22.494 20.6182 22.1782 20.934C21.8623 21.2499 21.6849 21.6783 21.6849 22.125V28.0198H18.3164V22.125C18.3164 20.7849 18.8487 19.4997 19.7963 18.5522C20.7439 17.6046 22.029 17.0723 23.3691 17.0723Z" fill="#616161"/>
<path d="M14.9466 17.9141H11.5781V28.0195H14.9466V17.9141Z" fill="#616161"/>
<path d="M13.2624 15.388C14.1925 15.388 14.9466 14.6339 14.9466 13.7038C14.9466 12.7736 14.1925 12.0195 13.2624 12.0195C12.3322 12.0195 11.5781 12.7736 11.5781 13.7038C11.5781 14.6339 12.3322 15.388 13.2624 15.388Z" fill="#616161"/>
</g>
</g>
</g>
<defs>
<clipPath id="clip0_1_3288">
<rect width="18" height="16" fill="white" transform="translate(11 12.0195)"/>
</clipPath>
<clipPath id="clip1_1_3288">
<rect width="18" height="16" fill="white" transform="translate(11 12.0195)"/>
</clipPath>
<clipPath id="clip2_1_3288">
<rect width="18" height="16" fill="white" transform="translate(11 12.0195)"/>
</clipPath>
</defs>
</svg>
