<svg width="40" height="41" viewBox="0 0 40 41" fill="none" xmlns="http://www.w3.org/2000/svg">
<rect y="0.0195312" width="40" height="40" rx="20" fill="white"/>
<rect x="1" y="1.01953" width="38" height="38" rx="19" stroke="#1B1B1B" stroke-opacity="0.16" stroke-width="2"/>
<path d="M11.9 20.0195C11.9 18.3095 13.29 16.9195 15 16.9195H19V15.0195H15C12.24 15.0195 10 17.2595 10 20.0195C10 22.7795 12.24 25.0195 15 25.0195H19V23.1195H15C13.29 23.1195 11.9 21.7295 11.9 20.0195ZM16 21.0195H24V19.0195H16V21.0195ZM25 15.0195H21V16.9195H25C26.71 16.9195 28.1 18.3095 28.1 20.0195C28.1 21.7295 26.71 23.1195 25 23.1195H21V25.0195H25C27.76 25.0195 30 22.7795 30 20.0195C30 17.2595 27.76 15.0195 25 15.0195Z" fill="#1B1B1B" fill-opacity="0.7"/>
</svg>
