<svg xmlns="http://www.w3.org/2000/svg" width="12" height="13" viewBox="0 0 12 13" fill="none">
  <path d="M10.875 2.58691H8.19375C7.61836 2.58691 7.05586 2.75215 6.57187 3.06387L6 3.43066L5.42813 3.06387C4.94462 2.75221 4.38149 2.58661 3.80625 2.58691H1.125C0.917578 2.58691 0.75 2.75449 0.75 2.96191V9.61817C0.75 9.82559 0.917578 9.99317 1.125 9.99317H3.80625C4.38164 9.99317 4.94414 10.1584 5.42813 10.4701L5.94844 10.8053C5.96367 10.8146 5.98125 10.8205 5.99883 10.8205C6.01641 10.8205 6.03398 10.8158 6.04922 10.8053L6.56953 10.4701C7.05469 10.1584 7.61836 9.99317 8.19375 9.99317H10.875C11.0824 9.99317 11.25 9.82559 11.25 9.61817V2.96191C11.25 2.75449 11.0824 2.58691 10.875 2.58691ZM3.80625 9.14942H1.59375V3.43066H3.80625C4.22109 3.43066 4.62422 3.54902 4.97227 3.77285L5.54414 4.13965L5.625 4.19238V9.60645C5.06719 9.30645 4.44375 9.14942 3.80625 9.14942ZM10.4062 9.14942H8.19375C7.55625 9.14942 6.93281 9.30645 6.375 9.60645V4.19238L6.45586 4.13965L7.02773 3.77285C7.37578 3.54902 7.77891 3.43066 8.19375 3.43066H10.4062V9.14942ZM4.65117 4.93066H2.47383C2.42813 4.93066 2.39062 4.97051 2.39062 5.01856V5.5459C2.39062 5.59395 2.42813 5.63379 2.47383 5.63379H4.65C4.6957 5.63379 4.7332 5.59395 4.7332 5.5459V5.01856C4.73438 4.97051 4.69687 4.93066 4.65117 4.93066ZM7.26562 5.01856V5.5459C7.26562 5.59395 7.30312 5.63379 7.34883 5.63379H9.525C9.5707 5.63379 9.6082 5.59395 9.6082 5.5459V5.01856C9.6082 4.97051 9.5707 4.93066 9.525 4.93066H7.34883C7.30312 4.93066 7.26562 4.97051 7.26562 5.01856ZM4.65117 6.57129H2.47383C2.42813 6.57129 2.39062 6.61113 2.39062 6.65918V7.18652C2.39062 7.23457 2.42813 7.27442 2.47383 7.27442H4.65C4.6957 7.27442 4.7332 7.23457 4.7332 7.18652V6.65918C4.73438 6.61113 4.69687 6.57129 4.65117 6.57129ZM9.52617 6.57129H7.34883C7.30312 6.57129 7.26562 6.61113 7.26562 6.65918V7.18652C7.26562 7.23457 7.30312 7.27442 7.34883 7.27442H9.525C9.5707 7.27442 9.6082 7.23457 9.6082 7.18652V6.65918C9.60938 6.61113 9.57188 6.57129 9.52617 6.57129Z" fill="white"/>
</svg>