<svg width="10" height="11" viewBox="0 0 10 11" fill="none" xmlns="http://www.w3.org/2000/svg">
<g id="Group">
<path id="Vector" opacity="0.4" d="M5 0.700195C2.23828 0.700195 0 2.93848 0 5.7002C0 8.46191 2.23828 10.7002 5 10.7002C7.76172 10.7002 10 8.46191 10 5.7002C10 2.93848 7.76172 0.700195 5 0.700195ZM6.25 7.86426C6.17615 7.90699 6.09559 7.92713 6.01602 7.92713C5.85428 7.92713 5.69648 7.8432 5.60977 7.69275L4.59375 5.93457C4.55273 5.86426 4.53125 5.78223 4.53125 5.7002V3.04395C4.53125 2.78613 4.74219 2.5752 5 2.5752C5.25781 2.5752 5.46875 2.78516 5.46875 3.04395V5.5752L6.42148 7.22559C6.55078 7.44824 6.47461 7.73535 6.25 7.86426Z" fill="#191919" fill-opacity="0.3"/>
<path id="Vector_2" d="M6.25 7.86426C6.17615 7.90699 6.09558 7.92713 6.01601 7.92713C5.85428 7.92713 5.69648 7.8432 5.60976 7.69275L4.59375 5.93457C4.55273 5.86426 4.53125 5.78223 4.53125 5.7002V3.04395C4.53125 2.78613 4.74219 2.5752 5 2.5752C5.25781 2.5752 5.46875 2.78516 5.46875 3.04395V5.5752L6.42148 7.22559C6.55078 7.44824 6.47461 7.73535 6.25 7.86426Z" fill="#0D0F25"/>
</g>
</svg>
