<svg width="12" height="13" viewBox="0 0 12 13" fill="none" xmlns="http://www.w3.org/2000/svg">
<path opacity="0.4" d="M6 1.30005C3.23828 1.30005 1 3.53833 1 6.30005C1 9.06177 3.23828 11.3 6 11.3C8.76172 11.3 11 9.06177 11 6.30005C11 3.53833 8.76172 1.30005 6 1.30005ZM7.25 8.46411C7.17615 8.50685 7.09559 8.52698 7.01602 8.52698C6.85428 8.52698 6.69648 8.44306 6.60977 8.29261L5.59375 6.53442C5.55273 6.46411 5.53125 6.38208 5.53125 6.30005V3.6438C5.53125 3.38599 5.74219 3.17505 6 3.17505C6.25781 3.17505 6.46875 3.38501 6.46875 3.6438V6.17505L7.42148 7.82544C7.55078 8.0481 7.47461 8.33521 7.25 8.46411Z" fill="#191919" fill-opacity="0.3"/>
<path d="M7.25 8.46411C7.17615 8.50684 7.09558 8.52698 7.01601 8.52698C6.85428 8.52698 6.69648 8.44306 6.60976 8.29261L5.59375 6.53442C5.55273 6.46411 5.53125 6.38208 5.53125 6.30005V3.6438C5.53125 3.38599 5.74219 3.17505 6 3.17505C6.25781 3.17505 6.46875 3.38501 6.46875 3.6438V6.17505L7.42148 7.82544C7.55078 8.0481 7.47461 8.3352 7.25 8.46411Z" fill="#0D0F25"/>
</svg>
