<svg xmlns="http://www.w3.org/2000/svg" width="12" height="13" viewBox="0 0 12 13" fill="none">
<g clip-path="url(#clip0_15015_955)">
<path d="M5.625 2.54993C6.08984 2.54993 6.52734 2.63782 6.9375 2.8136C7.34766 2.98938 7.70508 3.23157 8.00977 3.54016C8.31445 3.84875 8.55469 4.20618 8.73047 4.61243C8.90625 5.01868 8.99609 5.45618 9 5.92493C9 6.17102 8.98438 6.40149 8.95312 6.61633C8.92188 6.83118 8.87305 7.03625 8.80664 7.23157C8.74023 7.42688 8.6543 7.62024 8.54883 7.81165C8.44336 8.00305 8.31836 8.19836 8.17383 8.39758C8.06055 8.55383 7.96094 8.69446 7.875 8.81946C7.78906 8.94446 7.71875 9.06946 7.66406 9.19446C7.60938 9.31946 7.56836 9.45618 7.54102 9.60461C7.51367 9.75305 7.5 9.92688 7.5 10.1261V11.1749C7.5 11.3312 7.4707 11.4777 7.41211 11.6144C7.35352 11.7511 7.27344 11.8702 7.17188 11.9718C7.07031 12.0734 6.95117 12.1534 6.81445 12.212C6.67773 12.2706 6.53125 12.2999 6.375 12.2999H4.875C4.71875 12.2999 4.57227 12.2706 4.43555 12.212C4.29883 12.1534 4.17969 12.0734 4.07812 11.9718C3.97656 11.8702 3.89648 11.7511 3.83789 11.6144C3.7793 11.4777 3.75 11.3312 3.75 11.1749V10.1202C3.75 9.92102 3.73633 9.74915 3.70898 9.60461C3.68164 9.46008 3.64062 9.32532 3.58594 9.20032C3.53125 9.07532 3.46094 8.94836 3.375 8.81946C3.28906 8.69055 3.18945 8.54993 3.07617 8.39758C2.93164 8.19836 2.80859 8.005 2.70703 7.8175C2.60547 7.63 2.51953 7.43665 2.44922 7.23743C2.37891 7.03821 2.32812 6.83118 2.29688 6.61633C2.26562 6.40149 2.25 6.17102 2.25 5.92493C2.25 5.46008 2.33789 5.02258 2.51367 4.61243C2.68945 4.20227 2.93164 3.84485 3.24023 3.54016C3.54883 3.23547 3.90625 2.99524 4.3125 2.81946C4.71875 2.64368 5.15625 2.55383 5.625 2.54993ZM6.75 11.1749V10.7999H4.5V11.1749C4.5 11.2765 4.53711 11.3644 4.61133 11.4386C4.68555 11.5128 4.77344 11.5499 4.875 11.5499H6.375C6.47656 11.5499 6.56445 11.5128 6.63867 11.4386C6.71289 11.3644 6.75 11.2765 6.75 11.1749ZM8.25 5.92493C8.25 5.56165 8.18164 5.2218 8.04492 4.9054C7.9082 4.58899 7.7207 4.30969 7.48242 4.0675C7.24414 3.82532 6.9668 3.63782 6.65039 3.505C6.33398 3.37219 5.99219 3.30383 5.625 3.29993C5.26172 3.29993 4.92188 3.36829 4.60547 3.505C4.28906 3.64172 4.00977 3.82922 3.76758 4.0675C3.52539 4.30579 3.33789 4.58313 3.20508 4.89954C3.07227 5.21594 3.00391 5.55774 3 5.92493C3 6.27258 3.03516 6.57141 3.10547 6.82141C3.17578 7.07141 3.26758 7.29407 3.38086 7.48938C3.49414 7.68469 3.61328 7.86829 3.73828 8.04016C3.86328 8.21204 3.98242 8.39172 4.0957 8.57922C4.20898 8.76672 4.30273 8.97766 4.37695 9.21204C4.45117 9.44641 4.49219 9.72571 4.5 10.0499H6.75C6.75391 9.72571 6.79297 9.44836 6.86719 9.2179C6.94141 8.98743 7.03516 8.77649 7.14844 8.58508C7.26172 8.39368 7.38086 8.21399 7.50586 8.04602C7.63086 7.87805 7.75 7.69446 7.86328 7.49524C7.97656 7.29602 8.06836 7.07141 8.13867 6.82141C8.20898 6.57141 8.24609 6.27258 8.25 5.92493ZM5.625 1.79993C5.52344 1.79993 5.43555 1.76282 5.36133 1.6886C5.28711 1.61438 5.25 1.52649 5.25 1.42493V0.674927C5.25 0.573364 5.28711 0.485474 5.36133 0.411255C5.43555 0.337036 5.52344 0.299927 5.625 0.299927C5.72656 0.299927 5.81445 0.337036 5.88867 0.411255C5.96289 0.485474 6 0.573364 6 0.674927V1.42493C6 1.52649 5.96289 1.61438 5.88867 1.6886C5.81445 1.76282 5.72656 1.79993 5.625 1.79993ZM1.125 5.73743H0.375C0.273438 5.73743 0.185547 5.70032 0.111328 5.6261C0.0371094 5.55188 0 5.46399 0 5.36243C0 5.26086 0.0371094 5.17297 0.111328 5.09875C0.185547 5.02454 0.273438 4.98743 0.375 4.98743H1.125C1.22656 4.98743 1.31445 5.02454 1.38867 5.09875C1.46289 5.17297 1.5 5.26086 1.5 5.36243C1.5 5.46399 1.46289 5.55188 1.38867 5.6261C1.31445 5.70032 1.22656 5.73743 1.125 5.73743ZM1.43555 7.26672C1.53711 7.26672 1.625 7.30383 1.69922 7.37805C1.77344 7.45227 1.81055 7.54211 1.81055 7.64758C1.81055 7.72571 1.78906 7.79407 1.74609 7.85266C1.70312 7.91125 1.64453 7.95813 1.57031 7.99329C1.52734 8.01282 1.46875 8.03821 1.39453 8.06946C1.32031 8.10071 1.24023 8.13391 1.1543 8.16907C1.06836 8.20422 0.990234 8.23352 0.919922 8.25696C0.849609 8.2804 0.787109 8.29407 0.732422 8.29797C0.630859 8.29797 0.542969 8.26086 0.46875 8.18665C0.394531 8.11243 0.357422 8.02258 0.357422 7.91711C0.357422 7.83899 0.378906 7.77063 0.421875 7.71204C0.464844 7.65344 0.523438 7.60657 0.597656 7.57141C0.640625 7.55579 0.699219 7.5304 0.773438 7.49524C0.847656 7.46008 0.927734 7.42688 1.01367 7.39563C1.09961 7.36438 1.17773 7.33508 1.24805 7.30774C1.31836 7.2804 1.38086 7.26672 1.43555 7.26672ZM2.32617 3.48743C2.32617 3.58899 2.28906 3.67688 2.21484 3.7511C2.14062 3.82532 2.05273 3.86243 1.95117 3.86243C1.88086 3.86243 1.81641 3.84485 1.75781 3.80969L1.11914 3.41711C1.06445 3.38196 1.02148 3.33704 0.990234 3.28235C0.958984 3.22766 0.941406 3.16516 0.9375 3.09485C0.9375 2.99329 0.974609 2.9054 1.04883 2.83118C1.12305 2.75696 1.21094 2.71985 1.3125 2.71985C1.375 2.71985 1.43945 2.73938 1.50586 2.77844L2.15039 3.16516C2.20508 3.19641 2.24805 3.24133 2.2793 3.29993C2.31055 3.35852 2.32617 3.42102 2.32617 3.48743ZM2.8125 1.33118C2.8125 1.22961 2.84961 1.14172 2.92383 1.0675C2.99805 0.993286 3.08594 0.956177 3.1875 0.956177C3.25391 0.956177 3.31641 0.973755 3.375 1.00891C3.43359 1.04407 3.48047 1.09094 3.51562 1.14954L3.87891 1.80579C3.91016 1.86047 3.92578 1.91907 3.92578 1.98157C3.92578 2.08704 3.88867 2.17688 3.81445 2.2511C3.74023 2.32532 3.65234 2.36243 3.55078 2.36243C3.48438 2.36243 3.42188 2.34485 3.36328 2.30969C3.30469 2.27454 3.25781 2.22766 3.22266 2.16907L2.85938 1.51282C2.82812 1.45813 2.8125 1.39758 2.8125 1.33118ZM10.875 4.98743C10.9766 4.98743 11.0645 5.02454 11.1387 5.09875C11.2129 5.17297 11.25 5.26086 11.25 5.36243C11.25 5.46399 11.2129 5.55188 11.1387 5.6261C11.0645 5.70032 10.9766 5.73743 10.875 5.73743H10.125C10.0234 5.73743 9.93555 5.70032 9.86133 5.6261C9.78711 5.55188 9.75 5.46399 9.75 5.36243C9.75 5.26086 9.78711 5.17297 9.86133 5.09875C9.93555 5.02454 10.0234 4.98743 10.125 4.98743H10.875ZM10.8867 7.92297C10.8867 8.02454 10.8496 8.11243 10.7754 8.18665C10.7012 8.26086 10.6133 8.29797 10.5117 8.29797C10.4688 8.29797 10.4102 8.28625 10.3359 8.26282C10.2617 8.23938 10.1816 8.20813 10.0957 8.16907C10.0098 8.13 9.93164 8.0968 9.86133 8.06946C9.79102 8.04211 9.73047 8.01477 9.67969 7.98743C9.60938 7.95618 9.55273 7.9093 9.50977 7.8468C9.4668 7.7843 9.44336 7.71399 9.43945 7.63586C9.43945 7.5304 9.47656 7.4425 9.55078 7.37219C9.625 7.30188 9.71484 7.26477 9.82031 7.26086C9.86719 7.26086 9.92773 7.27454 10.002 7.30188C10.0762 7.32922 10.1543 7.36047 10.2363 7.39563C10.3184 7.43079 10.3965 7.46594 10.4707 7.5011C10.5449 7.53625 10.6055 7.56165 10.6523 7.57727C10.7227 7.60852 10.7793 7.65344 10.8223 7.71204C10.8652 7.77063 10.8867 7.84094 10.8867 7.92297ZM9.29883 3.86243C9.19727 3.86243 9.10938 3.82532 9.03516 3.7511C8.96094 3.67688 8.92383 3.58899 8.92383 3.48743C8.92383 3.42102 8.93945 3.35852 8.9707 3.29993C9.00195 3.24133 9.04492 3.19641 9.09961 3.16516L9.74414 2.77844C9.81055 2.73938 9.875 2.71985 9.9375 2.71985C10.0391 2.71985 10.127 2.75696 10.2012 2.83118C10.2754 2.9054 10.3125 2.99329 10.3125 3.09485C10.3125 3.16125 10.2969 3.2218 10.2656 3.27649C10.2344 3.33118 10.1895 3.37805 10.1309 3.41711L9.49219 3.80969C9.43359 3.84485 9.36914 3.86243 9.29883 3.86243ZM7.32422 1.98157C7.32422 1.91907 7.33984 1.86047 7.37109 1.80579L7.73438 1.14954C7.76562 1.09094 7.81055 1.04407 7.86914 1.00891C7.92773 0.973755 7.99219 0.956177 8.0625 0.956177C8.16406 0.956177 8.25195 0.993286 8.32617 1.0675C8.40039 1.14172 8.4375 1.22961 8.4375 1.33118C8.4375 1.39758 8.42188 1.45813 8.39062 1.51282L8.02734 2.16907C7.99609 2.22766 7.95117 2.27454 7.89258 2.30969C7.83398 2.34485 7.76953 2.36243 7.69922 2.36243C7.59766 2.36243 7.50977 2.32532 7.43555 2.2511C7.36133 2.17688 7.32422 2.08704 7.32422 1.98157Z" fill="#191919"/>
</g>
<defs>
<clipPath id="clip0_15015_955">
<rect width="12" height="12" fill="white" transform="translate(0 0.299927)"/>
</clipPath>
</defs>
</svg>