<svg xmlns="http://www.w3.org/2000/svg" width="12" height="13" viewBox="0 0 12 13" fill="none">
<path d="M9.75 2.54993C9.05325 2.54993 8.47125 3.02993 8.30325 3.67493H7.28025C7.08 3.67493 6.89175 3.75293 6.75 3.89468L5.40525 5.23943L5.9355 5.76968L7.28025 4.42493H8.30325C8.47088 5.06993 9.05325 5.54993 9.75 5.54993C10.5773 5.54993 11.25 4.87718 11.25 4.04993C11.25 3.22268 10.5773 2.54993 9.75 2.54993ZM9.75 4.79993C9.33638 4.79993 9 4.46355 9 4.04993C9 3.6363 9.33638 3.29993 9.75 3.29993C10.1636 3.29993 10.5 3.6363 10.5 4.04993C10.5 4.46355 10.1636 4.79993 9.75 4.79993ZM3.8145 6.83018L2.46975 8.17493H0.75V8.92493H2.46975C2.67 8.92493 2.85825 8.84693 3 8.70518L4.34475 7.36043L3.8145 6.83018Z" fill="#ffffff"/>
<path d="M9.75 7.04993C9.05325 7.04993 8.47125 7.52993 8.30325 8.17493H7.28025L3 3.89468C2.93055 3.8248 2.84792 3.76939 2.7569 3.73167C2.66588 3.69395 2.56828 3.67466 2.46975 3.67493H0.75V4.42493H2.46975L6.75 8.70518C6.89175 8.84693 7.08 8.92493 7.28025 8.92493H8.30325C8.47088 9.56993 9.05325 10.0499 9.75 10.0499C10.5773 10.0499 11.25 9.37718 11.25 8.54993C11.25 7.72268 10.5773 7.04993 9.75 7.04993ZM9.75 9.29993C9.33638 9.29993 9 8.96355 9 8.54993C9 8.1363 9.33638 7.79993 9.75 7.79993C10.1636 7.79993 10.5 8.1363 10.5 8.54993C10.5 8.96355 10.1636 9.29993 9.75 9.29993Z" fill="#ffffff"/>
</svg>