<svg width="12" height="13" viewBox="0 0 12 13" fill="none" xmlns="http://www.w3.org/2000/svg">
<path d="M10.5 4.2998C9.775 4.2998 9.37 5.0198 9.535 5.5548L7.76 7.3348C7.61 7.2898 7.39 7.2898 7.24 7.3348L5.965 6.0598C6.135 5.5248 5.73 4.7998 5 4.7998C4.275 4.7998 3.865 5.5198 4.035 6.0598L1.755 8.3348C1.22 8.1698 0.5 8.5748 0.5 9.2998C0.5 9.8498 0.95 10.2998 1.5 10.2998C2.225 10.2998 2.63 9.5798 2.465 9.0448L4.74 6.7648C4.89 6.8098 5.11 6.8098 5.26 6.7648L6.535 8.0398C6.365 8.5748 6.77 9.2998 7.5 9.2998C8.225 9.2998 8.635 8.5798 8.465 8.0398L10.245 6.2648C10.78 6.4298 11.5 6.0248 11.5 5.2998C11.5 4.7498 11.05 4.2998 10.5 4.2998Z" fill="white"/>
<path d="M7.5 4.7998L7.97 3.7648L9 3.2998L7.97 2.8348L7.5 1.7998L7.04 2.8348L6 3.2998L7.04 3.7648L7.5 4.7998ZM1.75 5.7998L2 4.7998L3 4.5498L2 4.2998L1.75 3.2998L1.5 4.2998L0.5 4.5498L1.5 4.7998L1.75 5.7998Z" fill="white"/>
</svg>
