<svg width="12" height="13" viewBox="0 0 12 13" fill="none" xmlns="http://www.w3.org/2000/svg">
<g clip-path="url(#clip0_23977_8308)">
<path d="M5.625 2.5498C6.08984 2.5498 6.52734 2.6377 6.9375 2.81348C7.34766 2.98926 7.70508 3.23145 8.00977 3.54004C8.31445 3.84863 8.55469 4.20605 8.73047 4.6123C8.90625 5.01855 8.99609 5.45605 9 5.9248C9 6.1709 8.98438 6.40137 8.95312 6.61621C8.92188 6.83105 8.87305 7.03613 8.80664 7.23145C8.74023 7.42676 8.6543 7.62012 8.54883 7.81152C8.44336 8.00293 8.31836 8.19824 8.17383 8.39746C8.06055 8.55371 7.96094 8.69434 7.875 8.81934C7.78906 8.94434 7.71875 9.06934 7.66406 9.19434C7.60938 9.31934 7.56836 9.45605 7.54102 9.60449C7.51367 9.75293 7.5 9.92676 7.5 10.126V11.1748C7.5 11.3311 7.4707 11.4775 7.41211 11.6143C7.35352 11.751 7.27344 11.8701 7.17188 11.9717C7.07031 12.0732 6.95117 12.1533 6.81445 12.2119C6.67773 12.2705 6.53125 12.2998 6.375 12.2998H4.875C4.71875 12.2998 4.57227 12.2705 4.43555 12.2119C4.29883 12.1533 4.17969 12.0732 4.07812 11.9717C3.97656 11.8701 3.89648 11.751 3.83789 11.6143C3.7793 11.4775 3.75 11.3311 3.75 11.1748V10.1201C3.75 9.9209 3.73633 9.74902 3.70898 9.60449C3.68164 9.45996 3.64062 9.3252 3.58594 9.2002C3.53125 9.0752 3.46094 8.94824 3.375 8.81934C3.28906 8.69043 3.18945 8.5498 3.07617 8.39746C2.93164 8.19824 2.80859 8.00488 2.70703 7.81738C2.60547 7.62988 2.51953 7.43652 2.44922 7.2373C2.37891 7.03809 2.32812 6.83105 2.29688 6.61621C2.26562 6.40137 2.25 6.1709 2.25 5.9248C2.25 5.45996 2.33789 5.02246 2.51367 4.6123C2.68945 4.20215 2.93164 3.84473 3.24023 3.54004C3.54883 3.23535 3.90625 2.99512 4.3125 2.81934C4.71875 2.64355 5.15625 2.55371 5.625 2.5498ZM6.75 11.1748V10.7998H4.5V11.1748C4.5 11.2764 4.53711 11.3643 4.61133 11.4385C4.68555 11.5127 4.77344 11.5498 4.875 11.5498H6.375C6.47656 11.5498 6.56445 11.5127 6.63867 11.4385C6.71289 11.3643 6.75 11.2764 6.75 11.1748ZM8.25 5.9248C8.25 5.56152 8.18164 5.22168 8.04492 4.90527C7.9082 4.58887 7.7207 4.30957 7.48242 4.06738C7.24414 3.8252 6.9668 3.6377 6.65039 3.50488C6.33398 3.37207 5.99219 3.30371 5.625 3.2998C5.26172 3.2998 4.92188 3.36816 4.60547 3.50488C4.28906 3.6416 4.00977 3.8291 3.76758 4.06738C3.52539 4.30566 3.33789 4.58301 3.20508 4.89941C3.07227 5.21582 3.00391 5.55762 3 5.9248C3 6.27246 3.03516 6.57129 3.10547 6.82129C3.17578 7.07129 3.26758 7.29395 3.38086 7.48926C3.49414 7.68457 3.61328 7.86816 3.73828 8.04004C3.86328 8.21191 3.98242 8.3916 4.0957 8.5791C4.20898 8.7666 4.30273 8.97754 4.37695 9.21191C4.45117 9.44629 4.49219 9.72559 4.5 10.0498H6.75C6.75391 9.72559 6.79297 9.44824 6.86719 9.21777C6.94141 8.9873 7.03516 8.77637 7.14844 8.58496C7.26172 8.39355 7.38086 8.21387 7.50586 8.0459C7.63086 7.87793 7.75 7.69434 7.86328 7.49512C7.97656 7.2959 8.06836 7.07129 8.13867 6.82129C8.20898 6.57129 8.24609 6.27246 8.25 5.9248ZM5.625 1.7998C5.52344 1.7998 5.43555 1.7627 5.36133 1.68848C5.28711 1.61426 5.25 1.52637 5.25 1.4248V0.674805C5.25 0.573242 5.28711 0.485352 5.36133 0.411133C5.43555 0.336914 5.52344 0.299805 5.625 0.299805C5.72656 0.299805 5.81445 0.336914 5.88867 0.411133C5.96289 0.485352 6 0.573242 6 0.674805V1.4248C6 1.52637 5.96289 1.61426 5.88867 1.68848C5.81445 1.7627 5.72656 1.7998 5.625 1.7998ZM1.125 5.7373H0.375C0.273438 5.7373 0.185547 5.7002 0.111328 5.62598C0.0371094 5.55176 0 5.46387 0 5.3623C0 5.26074 0.0371094 5.17285 0.111328 5.09863C0.185547 5.02441 0.273438 4.9873 0.375 4.9873H1.125C1.22656 4.9873 1.31445 5.02441 1.38867 5.09863C1.46289 5.17285 1.5 5.26074 1.5 5.3623C1.5 5.46387 1.46289 5.55176 1.38867 5.62598C1.31445 5.7002 1.22656 5.7373 1.125 5.7373ZM1.43555 7.2666C1.53711 7.2666 1.625 7.30371 1.69922 7.37793C1.77344 7.45215 1.81055 7.54199 1.81055 7.64746C1.81055 7.72559 1.78906 7.79395 1.74609 7.85254C1.70312 7.91113 1.64453 7.95801 1.57031 7.99316C1.52734 8.0127 1.46875 8.03809 1.39453 8.06934C1.32031 8.10059 1.24023 8.13379 1.1543 8.16895C1.06836 8.2041 0.990234 8.2334 0.919922 8.25684C0.849609 8.28027 0.787109 8.29395 0.732422 8.29785C0.630859 8.29785 0.542969 8.26074 0.46875 8.18652C0.394531 8.1123 0.357422 8.02246 0.357422 7.91699C0.357422 7.83887 0.378906 7.77051 0.421875 7.71191C0.464844 7.65332 0.523438 7.60645 0.597656 7.57129C0.640625 7.55566 0.699219 7.53027 0.773438 7.49512C0.847656 7.45996 0.927734 7.42676 1.01367 7.39551C1.09961 7.36426 1.17773 7.33496 1.24805 7.30762C1.31836 7.28027 1.38086 7.2666 1.43555 7.2666ZM2.32617 3.4873C2.32617 3.58887 2.28906 3.67676 2.21484 3.75098C2.14062 3.8252 2.05273 3.8623 1.95117 3.8623C1.88086 3.8623 1.81641 3.84473 1.75781 3.80957L1.11914 3.41699C1.06445 3.38184 1.02148 3.33691 0.990234 3.28223C0.958984 3.22754 0.941406 3.16504 0.9375 3.09473C0.9375 2.99316 0.974609 2.90527 1.04883 2.83105C1.12305 2.75684 1.21094 2.71973 1.3125 2.71973C1.375 2.71973 1.43945 2.73926 1.50586 2.77832L2.15039 3.16504C2.20508 3.19629 2.24805 3.24121 2.2793 3.2998C2.31055 3.3584 2.32617 3.4209 2.32617 3.4873ZM2.8125 1.33105C2.8125 1.22949 2.84961 1.1416 2.92383 1.06738C2.99805 0.993164 3.08594 0.956055 3.1875 0.956055C3.25391 0.956055 3.31641 0.973633 3.375 1.00879C3.43359 1.04395 3.48047 1.09082 3.51562 1.14941L3.87891 1.80566C3.91016 1.86035 3.92578 1.91895 3.92578 1.98145C3.92578 2.08691 3.88867 2.17676 3.81445 2.25098C3.74023 2.3252 3.65234 2.3623 3.55078 2.3623C3.48438 2.3623 3.42188 2.34473 3.36328 2.30957C3.30469 2.27441 3.25781 2.22754 3.22266 2.16895L2.85938 1.5127C2.82812 1.45801 2.8125 1.39746 2.8125 1.33105ZM10.875 4.9873C10.9766 4.9873 11.0645 5.02441 11.1387 5.09863C11.2129 5.17285 11.25 5.26074 11.25 5.3623C11.25 5.46387 11.2129 5.55176 11.1387 5.62598C11.0645 5.7002 10.9766 5.7373 10.875 5.7373H10.125C10.0234 5.7373 9.93555 5.7002 9.86133 5.62598C9.78711 5.55176 9.75 5.46387 9.75 5.3623C9.75 5.26074 9.78711 5.17285 9.86133 5.09863C9.93555 5.02441 10.0234 4.9873 10.125 4.9873H10.875ZM10.8867 7.92285C10.8867 8.02441 10.8496 8.1123 10.7754 8.18652C10.7012 8.26074 10.6133 8.29785 10.5117 8.29785C10.4688 8.29785 10.4102 8.28613 10.3359 8.2627C10.2617 8.23926 10.1816 8.20801 10.0957 8.16895C10.0098 8.12988 9.93164 8.09668 9.86133 8.06934C9.79102 8.04199 9.73047 8.01465 9.67969 7.9873C9.60938 7.95605 9.55273 7.90918 9.50977 7.84668C9.4668 7.78418 9.44336 7.71387 9.43945 7.63574C9.43945 7.53027 9.47656 7.44238 9.55078 7.37207C9.625 7.30176 9.71484 7.26465 9.82031 7.26074C9.86719 7.26074 9.92773 7.27441 10.002 7.30176C10.0762 7.3291 10.1543 7.36035 10.2363 7.39551C10.3184 7.43066 10.3965 7.46582 10.4707 7.50098C10.5449 7.53613 10.6055 7.56152 10.6523 7.57715C10.7227 7.6084 10.7793 7.65332 10.8223 7.71191C10.8652 7.77051 10.8867 7.84082 10.8867 7.92285ZM9.29883 3.8623C9.19727 3.8623 9.10938 3.8252 9.03516 3.75098C8.96094 3.67676 8.92383 3.58887 8.92383 3.4873C8.92383 3.4209 8.93945 3.3584 8.9707 3.2998C9.00195 3.24121 9.04492 3.19629 9.09961 3.16504L9.74414 2.77832C9.81055 2.73926 9.875 2.71973 9.9375 2.71973C10.0391 2.71973 10.127 2.75684 10.2012 2.83105C10.2754 2.90527 10.3125 2.99316 10.3125 3.09473C10.3125 3.16113 10.2969 3.22168 10.2656 3.27637C10.2344 3.33105 10.1895 3.37793 10.1309 3.41699L9.49219 3.80957C9.43359 3.84473 9.36914 3.8623 9.29883 3.8623ZM7.32422 1.98145C7.32422 1.91895 7.33984 1.86035 7.37109 1.80566L7.73438 1.14941C7.76562 1.09082 7.81055 1.04395 7.86914 1.00879C7.92773 0.973633 7.99219 0.956055 8.0625 0.956055C8.16406 0.956055 8.25195 0.993164 8.32617 1.06738C8.40039 1.1416 8.4375 1.22949 8.4375 1.33105C8.4375 1.39746 8.42188 1.45801 8.39062 1.5127L8.02734 2.16895C7.99609 2.22754 7.95117 2.27441 7.89258 2.30957C7.83398 2.34473 7.76953 2.3623 7.69922 2.3623C7.59766 2.3623 7.50977 2.3252 7.43555 2.25098C7.36133 2.17676 7.32422 2.08691 7.32422 1.98145Z" fill="white"/>
</g>
<defs>
<clipPath id="clip0_23977_8308">
<rect width="12" height="12" fill="white" transform="translate(0 0.299805)"/>
</clipPath>
</defs>
</svg>
