<svg width="12" height="13" viewBox="0 0 12 13" fill="none" xmlns="http://www.w3.org/2000/svg">
<path d="M4.29 8.9248L4.75 6.9798L3.25 5.6898L5.225 5.5048L6 3.6998L6.775 5.5248L8.75 5.6898L7.25 6.9798L7.71 8.9248L6 7.8948L4.29 8.9248ZM6 1.2998C6.65661 1.2998 7.30679 1.42913 7.91342 1.68041C8.52005 1.93168 9.07124 2.29998 9.53553 2.76427C9.99983 3.22856 10.3681 3.77976 10.6194 4.38639C10.8707 4.99302 11 5.6432 11 6.2998C11 7.62589 10.4732 8.89766 9.53553 9.83534C8.59785 10.773 7.32608 11.2998 6 11.2998C5.34339 11.2998 4.69321 11.1705 4.08658 10.9192C3.47995 10.6679 2.92876 10.2996 2.46447 9.83534C1.52678 8.89766 1 7.62589 1 6.2998C1 4.97372 1.52678 3.70195 2.46447 2.76427C3.40215 1.82659 4.67392 1.2998 6 1.2998ZM6 2.2998C4.93913 2.2998 3.92172 2.72123 3.17157 3.47138C2.42143 4.22152 2 5.23894 2 6.2998C2 7.36067 2.42143 8.37809 3.17157 9.12823C3.92172 9.87838 4.93913 10.2998 6 10.2998C7.06087 10.2998 8.07828 9.87838 8.82843 9.12823C9.57857 8.37809 10 7.36067 10 6.2998C10 5.23894 9.57857 4.22152 8.82843 3.47138C8.07828 2.72123 7.06087 2.2998 6 2.2998Z" fill="white"/>
</svg>
