<svg xmlns="http://www.w3.org/2000/svg" width="12" height="13" viewBox="0 0 12 13" fill="none">
<path d="M4.29 8.92493L4.75 6.97993L3.25 5.68993L5.225 5.50493L6 3.69993L6.775 5.52493L8.75 5.68993L7.25 6.97993L7.71 8.92493L6 7.89493L4.29 8.92493ZM6 1.29993C6.65661 1.29993 7.30679 1.42926 7.91342 1.68053C8.52005 1.9318 9.07124 2.3001 9.53553 2.76439C9.99983 3.22869 10.3681 3.77988 10.6194 4.38651C10.8707 4.99314 11 5.64332 11 6.29993C11 7.62601 10.4732 8.89778 9.53553 9.83546C8.59785 10.7731 7.32608 11.2999 6 11.2999C5.34339 11.2999 4.69321 11.1706 4.08658 10.9193C3.47995 10.6681 2.92876 10.2998 2.46447 9.83546C1.52678 8.89778 1 7.62601 1 6.29993C1 4.97384 1.52678 3.70207 2.46447 2.76439C3.40215 1.82671 4.67392 1.29993 6 1.29993ZM6 2.29993C4.93913 2.29993 3.92172 2.72135 3.17157 3.4715C2.42143 4.22165 2 5.23906 2 6.29993C2 7.36079 2.42143 8.37821 3.17157 9.12835C3.92172 9.8785 4.93913 10.2999 6 10.2999C7.06087 10.2999 8.07828 9.8785 8.82843 9.12835C9.57857 8.37821 10 7.36079 10 6.29993C10 5.23906 9.57857 4.22165 8.82843 3.4715C8.07828 2.72135 7.06087 2.29993 6 2.29993Z" fill="#191919"/>
</svg>