<svg xmlns="http://www.w3.org/2000/svg" width="12" height="13" viewBox="0 0 12 13" fill="none">
<path d="M10.5 4.29993C9.775 4.29993 9.37 5.01993 9.535 5.55493L7.76 7.33493C7.61 7.28993 7.39 7.28993 7.24 7.33493L5.965 6.05993C6.135 5.52493 5.73 4.79993 5 4.79993C4.275 4.79993 3.865 5.51993 4.035 6.05993L1.755 8.33493C1.22 8.16993 0.5 8.57493 0.5 9.29993C0.5 9.84993 0.95 10.2999 1.5 10.2999C2.225 10.2999 2.63 9.57993 2.465 9.04493L4.74 6.76493C4.89 6.80993 5.11 6.80993 5.26 6.76493L6.535 8.03993C6.365 8.57493 6.77 9.29993 7.5 9.29993C8.225 9.29993 8.635 8.57993 8.465 8.03993L10.245 6.26493C10.78 6.42993 11.5 6.02493 11.5 5.29993C11.5 4.74993 11.05 4.29993 10.5 4.29993Z" fill="#191919"/>
<path d="M7.5 4.79993L7.97 3.76493L9 3.29993L7.97 2.83493L7.5 1.79993L7.04 2.83493L6 3.29993L7.04 3.76493L7.5 4.79993ZM1.75 5.79993L2 4.79993L3 4.54993L2 4.29993L1.75 3.29993L1.5 4.29993L0.5 4.54993L1.5 4.79993L1.75 5.79993Z" fill="#191919"/>
</svg>